<svg version="1.1" id="Layer_1" xmlns="http://www.w3.org/2000/svg" xmlns:xlink="http://www.w3.org/1999/xlink" x="0px" y="0px"
	 width="100%" viewBox="0 0 1209 501" enable-background="new 0 0 1209 501" xml:space="preserve">
<path fill="#000000" opacity="1.000000" stroke="none" 
	d="
M837.000000,502.000000 
	C558.000061,502.000000 279.500061,502.000000 1.000075,502.000000 
	C1.000050,335.000061 1.000050,168.000107 1.000025,1.000120 
	C403.999908,1.000080 806.999817,1.000080 1209.999756,1.000040 
	C1209.999878,167.999878 1209.999878,334.999756 1210.000000,501.999817 
	C1085.833374,502.000000 961.666687,502.000000 837.000000,502.000000 
M948.013611,212.107468 
	C948.021179,202.777634 948.028809,193.447815 948.965881,184.034149 
	C965.872498,184.034149 982.779114,184.034149 999.567505,184.034149 
	C999.567505,171.507721 999.567505,159.941437 999.567505,148.400436 
	C967.570618,148.400436 936.007935,148.400436 904.363708,148.400436 
	C904.363708,204.694061 904.363708,260.586517 904.363708,316.668365 
	C936.290344,316.668365 967.852478,316.668365 999.833557,316.668365 
	C999.833557,304.561218 999.833557,292.779083 999.369385,280.300629 
	C982.228088,280.183289 965.086792,280.065948 947.944824,280.053375 
	C947.944824,280.053375 948.049561,280.054230 948.013611,279.108429 
	C948.021179,269.445007 948.028687,259.781586 948.965759,250.034210 
	C964.821960,250.034210 980.678162,250.034210 996.833618,250.034210 
	C996.833618,237.486130 996.833618,225.741470 996.372498,213.297943 
	C980.230042,213.181198 964.087524,213.064438 947.943909,213.051773 
	C947.943909,213.051773 948.047974,213.053040 948.013611,212.107468 
M750.278198,202.603119 
	C750.189636,203.258682 750.023926,203.914230 750.023621,204.569824 
	C750.007690,240.805344 749.996216,277.040863 750.043945,313.276337 
	C750.045532,314.462494 750.665161,315.647827 751.927979,316.951752 
	C764.832520,316.951752 777.737000,316.951752 790.999817,316.951752 
	C790.999817,314.145294 790.999817,312.165588 790.999878,310.185913 
	C791.000122,292.035339 790.654053,273.875977 791.113770,255.737061 
	C791.461914,242.001328 795.191162,234.240417 810.327881,231.345322 
	C816.569519,230.151520 828.332214,234.870209 829.152222,242.230743 
	C829.586670,246.130051 830.876038,249.985199 830.914551,253.868851 
	C831.103027,272.850159 831.000183,291.834351 831.000366,310.817535 
	C831.000427,312.738373 831.000366,314.659210 831.000366,316.630066 
	C845.048523,316.630066 858.274292,316.630066 871.829895,316.630066 
	C871.829895,311.477112 871.829895,306.685638 871.942200,300.982239 
	C871.965881,281.293488 872.010010,261.604706 871.968994,241.916077 
	C871.966125,240.547272 871.330383,239.179779 870.996704,236.961426 
	C870.248474,224.473053 865.664795,214.128159 854.902832,206.909470 
	C847.047668,201.640533 838.345886,199.772171 829.151428,199.710449 
	C818.487122,199.638840 808.159058,201.094910 799.549011,208.212357 
	C796.845947,210.446854 794.370667,212.956848 790.799500,216.257126 
	C790.799500,210.692123 790.799500,206.600647 790.799500,202.166428 
	C777.197632,202.166428 764.097168,202.166428 750.278198,202.603119 
M1081.499512,148.000061 
	C1063.764038,148.000061 1046.028442,148.000061 1028.425293,148.000061 
	C1028.425293,204.828903 1028.425293,260.716217 1028.425293,316.999817 
	C1030.822754,316.999817 1032.801636,316.999817 1034.780640,316.999817 
	C1054.607544,316.999939 1074.434937,317.064636 1094.261230,316.948975 
	C1098.540771,316.924042 1102.910767,316.689697 1107.078491,315.799744 
	C1127.606323,311.416290 1144.957397,301.714935 1157.799194,284.705048 
	C1167.513428,271.837738 1174.409546,257.645203 1175.865601,241.501831 
	C1177.799683,220.059998 1172.872437,200.143616 1159.863159,182.684174 
	C1149.136475,168.287933 1135.408569,157.808472 1118.284302,151.939072 
	C1106.628784,147.944077 1094.586548,147.860825 1081.499512,148.000061 
M127.014252,250.529984 
	C126.361328,249.646927 125.708405,248.763885 125.558281,248.560837 
	C132.760162,244.553909 140.567917,241.652847 146.551651,236.594208 
	C161.091110,224.302628 163.676392,206.924377 160.449280,189.798782 
	C155.309814,162.524750 136.905167,148.589905 108.842842,148.079483 
	C87.017670,147.682510 65.179497,148.000244 43.347103,148.000336 
	C41.409107,148.000351 39.471115,148.000351 37.324966,148.000351 
	C37.324966,204.604996 37.324966,260.502777 37.324966,316.524841 
	C52.005650,316.524841 66.356651,316.524841 81.278404,316.524841 
	C81.278404,295.571991 81.278404,275.088654 81.278404,253.396713 
	C82.728477,255.387543 83.438232,256.276062 84.056915,257.224060 
	C96.298782,275.981628 108.452469,294.797943 120.888329,313.425903 
	C122.081146,315.212646 124.999054,316.801758 127.147713,316.843170 
	C142.308090,317.135315 157.476761,317.008942 172.642731,316.980408 
	C174.016663,316.977814 175.390121,316.723114 177.475281,316.514221 
	C169.805527,306.557007 162.645264,297.334259 155.564575,288.050812 
	C146.178177,275.744385 136.853958,263.390533 127.014252,250.529984 
M704.646851,212.880417 
	C698.249512,209.251495 692.156860,204.860550 685.390259,202.155106 
	C672.024353,196.811035 657.954163,197.142410 643.877319,198.981232 
	C625.619019,201.366287 610.885315,209.727859 599.773682,224.484894 
	C591.104797,235.997803 588.105408,248.994354 588.975098,263.178558 
	C590.297791,284.751404 600.014160,301.457031 618.882690,311.807556 
	C641.335449,324.124268 665.281433,324.401550 688.830078,315.730988 
	C710.725403,307.669189 724.780579,288.661011 726.820190,265.011383 
	C728.600403,244.369965 721.425903,226.704834 704.646851,212.880417 
M436.883118,276.700500 
	C440.770508,273.100494 445.482605,270.068054 448.413391,265.809662 
	C469.745758,234.813766 454.781647,198.120422 420.111938,187.050354 
	C406.071686,182.567276 391.772217,182.340134 377.748779,187.078568 
	C359.313660,193.307724 344.964996,204.684250 341.355804,224.509735 
	C339.198181,236.361542 334.377075,246.143784 327.735779,255.575790 
	C326.977173,256.653259 325.848755,257.684784 325.620605,258.877045 
	C325.132690,261.427277 324.196930,264.528564 325.193848,266.535004 
	C326.072083,268.302612 329.227661,269.284119 331.564453,269.880249 
	C333.709076,270.427338 336.103210,269.996429 338.630737,269.996429 
	C339.512634,279.265594 338.419281,288.513428 346.468109,295.076141 
	C353.958832,301.183807 362.917572,300.880280 372.240356,301.307709 
	C372.240356,308.129028 372.240356,314.371918 372.240356,320.613831 
	C393.405579,320.613831 413.970581,320.613831 435.004700,320.613831 
	C435.004700,307.766388 434.951630,295.299713 435.061798,282.834473 
	C435.078339,280.962616 435.858459,279.097504 436.883118,276.700500 
M260.179047,199.006149 
	C252.900192,199.333496 245.573151,199.241943 238.352249,200.072845 
	C221.834442,201.973541 208.353104,209.500656 198.913651,223.391769 
	C189.290588,237.553040 186.612961,253.226913 188.895233,270.118622 
	C191.630630,290.364075 202.005051,305.131470 219.951950,314.358643 
	C231.195724,320.139526 243.488739,321.164001 256.097961,321.169556 
	C271.572449,321.176392 285.532593,317.427063 297.542877,307.675751 
	C305.549347,301.175201 309.518524,292.034668 313.001953,282.487152 
	C311.908173,282.229309 311.586212,282.088013 311.263733,282.086853 
	C300.932709,282.049622 290.595612,282.222931 280.273590,281.904327 
	C276.076355,281.774780 272.877533,282.768555 270.331970,286.127472 
	C264.901886,293.292603 252.348724,295.482483 240.149994,289.940674 
	C233.701874,287.011322 228.919601,277.051056 229.562531,266.865540 
	C257.892029,266.865540 286.275787,266.865540 315.107910,266.865540 
	C314.568573,255.418655 313.968445,244.712341 309.766998,234.670837 
	C303.750946,220.292450 294.429932,208.891235 279.177887,203.669769 
	C273.313171,201.662003 267.141907,200.549652 260.179047,199.006149 
M562.475281,253.990128 
	C555.540649,248.282394 547.375488,245.497772 538.702637,243.799454 
	C534.845642,243.044174 530.692871,242.575745 527.364929,240.731216 
	C524.721985,239.266403 521.966614,236.153870 521.363037,233.324509 
	C520.593628,229.718018 525.317505,225.860214 529.757019,226.122574 
	C535.798706,226.479630 541.823425,227.446350 547.796265,228.490189 
	C550.304443,228.928528 552.661194,230.233368 555.358521,231.246338 
	C559.959229,222.488846 564.382690,214.068832 568.864075,205.538528 
	C567.519409,204.890396 566.668945,204.352798 565.741638,204.052567 
	C550.851196,199.231506 535.875732,197.078629 519.994751,198.734344 
	C500.553467,200.761246 481.250244,215.532944 480.741821,236.740280 
	C480.381348,251.776764 486.563446,262.743652 500.906006,267.370697 
	C508.080475,269.685272 515.556335,271.049377 522.808228,273.146484 
	C527.042603,274.370941 531.512695,276.623291 531.400940,281.478271 
	C531.336731,284.266602 528.782471,288.228058 526.279236,289.426392 
	C522.956726,291.016968 518.483582,291.170349 514.692322,290.628784 
	C504.485107,289.170685 495.026215,285.395599 486.493469,279.333405 
	C481.487061,288.921814 476.547821,298.381653 471.509583,308.031006 
	C495.332733,321.687347 519.994202,325.836517 545.300720,316.576965 
	C573.834595,306.136566 580.121277,273.167969 562.475281,253.990128 
z"/>
<path fill="#541690" opacity="1.000000" stroke="none" 
	d="
M1081.999268,148.000061 
	C1094.586548,147.860825 1106.628784,147.944077 1118.284302,151.939072 
	C1135.408569,157.808472 1149.136475,168.287933 1159.863159,182.684174 
	C1172.872437,200.143616 1177.799683,220.059998 1175.865601,241.501831 
	C1174.409546,257.645203 1167.513428,271.837738 1157.799194,284.705048 
	C1144.957397,301.714935 1127.606323,311.416290 1107.078491,315.799744 
	C1102.910767,316.689697 1098.540771,316.924042 1094.261230,316.948975 
	C1074.434937,317.064636 1054.607544,316.999939 1034.780640,316.999817 
	C1032.801636,316.999817 1030.822754,316.999817 1028.425293,316.999817 
	C1028.425293,260.716217 1028.425293,204.828903 1028.425293,148.000061 
	C1046.028442,148.000061 1063.764038,148.000061 1081.999268,148.000061 
M1072.084229,185.876419 
	C1072.084229,217.422501 1072.084229,248.968582 1072.084229,281.063293 
	C1079.480713,280.647491 1086.346191,281.008301 1092.905273,279.760101 
	C1117.756714,275.030853 1130.147827,256.522491 1130.820190,234.008347 
	C1131.407959,214.329666 1123.740845,198.166351 1105.356445,189.090546 
	C1095.047363,184.001236 1083.800659,182.436859 1072.084229,185.876419 
z"/>
<path fill="#541690" opacity="1.000000" stroke="none" 
	d="
M127.258621,250.793533 
	C136.853958,263.390533 146.178177,275.744385 155.564575,288.050812 
	C162.645264,297.334259 169.805527,306.557007 177.475281,316.514221 
	C175.390121,316.723114 174.016663,316.977814 172.642731,316.980408 
	C157.476761,317.008942 142.308090,317.135315 127.147713,316.843170 
	C124.999054,316.801758 122.081146,315.212646 120.888329,313.425903 
	C108.452469,294.797943 96.298782,275.981628 84.056915,257.224060 
	C83.438232,256.276062 82.728477,255.387543 81.278404,253.396713 
	C81.278404,275.088654 81.278404,295.571991 81.278404,316.524841 
	C66.356651,316.524841 52.005650,316.524841 37.324966,316.524841 
	C37.324966,260.502777 37.324966,204.604996 37.324966,148.000351 
	C39.471115,148.000351 41.409107,148.000351 43.347103,148.000336 
	C65.179497,148.000244 87.017670,147.682510 108.842842,148.079483 
	C136.905167,148.589905 155.309814,162.524750 160.449280,189.798782 
	C163.676392,206.924377 161.091110,224.302628 146.551651,236.594208 
	C140.567917,241.652847 132.760162,244.553909 125.558281,248.560837 
	C125.708405,248.763885 126.361328,249.646927 127.258621,250.793533 
M110.518288,215.974976 
	C116.441887,209.417908 117.190926,201.594391 113.896172,193.521011 
	C109.223900,182.072220 92.630585,179.319839 81.381615,181.899887 
	C81.381615,195.801025 81.381615,209.689743 81.381615,224.401459 
	C88.166824,223.532349 94.590370,223.178131 100.757393,221.730850 
	C104.064758,220.954681 106.930984,218.298752 110.518288,215.974976 
z"/>
<path fill="#541690" opacity="1.000000" stroke="none" 
	d="
M996.833618,213.996811 
	C996.833618,225.741470 996.833618,237.486130 996.833618,250.034210 
	C980.678162,250.034210 964.821960,250.034210 948.343567,250.444702 
	C947.830750,260.588196 947.940186,270.321228 948.049561,280.054230 
	C948.049561,280.054230 947.944824,280.053375 948.330017,280.162109 
	C951.173706,280.513367 953.631226,280.954559 956.090759,280.965637 
	C970.671509,281.031372 985.252563,280.997406 999.833557,280.996948 
	C999.833557,292.779083 999.833557,304.561218 999.833557,316.668365 
	C967.852478,316.668365 936.290344,316.668365 904.363708,316.668365 
	C904.363708,260.586517 904.363708,204.694061 904.363708,148.400436 
	C936.007935,148.400436 967.570618,148.400436 999.567505,148.400436 
	C999.567505,159.941437 999.567505,171.507721 999.567505,184.034149 
	C982.779114,184.034149 965.872498,184.034149 948.343689,184.444595 
	C947.830322,194.254379 947.939148,203.653702 948.047974,213.053040 
	C948.047974,213.053040 947.943909,213.051773 948.327881,213.164795 
	C950.838196,213.516998 952.963684,213.953796 955.091125,213.963379 
	C969.005066,214.026093 982.919434,213.996338 996.833618,213.996811 
z"/>
<path fill="#551690" opacity="1.000000" stroke="none" 
	d="
M704.989136,212.988464 
	C721.425903,226.704834 728.600403,244.369965 726.820190,265.011383 
	C724.780579,288.661011 710.725403,307.669189 688.830078,315.730988 
	C665.281433,324.401550 641.335449,324.124268 618.882690,311.807556 
	C600.014160,301.457031 590.297791,284.751404 588.975098,263.178558 
	C588.105408,248.994354 591.104797,235.997803 599.773682,224.484894 
	C610.885315,209.727859 625.619019,201.366287 643.877319,198.981232 
	C657.954163,197.142410 672.024353,196.811035 685.390259,202.155106 
	C692.156860,204.860550 698.249512,209.251495 704.989136,212.988464 
M631.002441,257.716980 
	C629.231506,271.836304 642.976257,288.590240 661.009949,286.126953 
	C671.144653,284.742645 681.149536,277.662079 683.639465,267.389862 
	C686.441650,255.829376 683.711792,245.429733 674.000732,238.055969 
	C658.153992,226.023270 633.617004,235.056808 631.002441,257.716980 
z"/>
<path fill="#551790" opacity="1.000000" stroke="none" 
	d="
M436.584229,276.964905 
	C435.858459,279.097504 435.078339,280.962616 435.061798,282.834473 
	C434.951630,295.299713 435.004700,307.766388 435.004700,320.613831 
	C413.970581,320.613831 393.405579,320.613831 372.240356,320.613831 
	C372.240356,314.371918 372.240356,308.129028 372.240356,301.307709 
	C362.917572,300.880280 353.958832,301.183807 346.468109,295.076141 
	C338.419281,288.513428 339.512634,279.265594 338.630737,269.996429 
	C336.103210,269.996429 333.709076,270.427338 331.564453,269.880249 
	C329.227661,269.284119 326.072083,268.302612 325.193848,266.535004 
	C324.196930,264.528564 325.132690,261.427277 325.620605,258.877045 
	C325.848755,257.684784 326.977173,256.653259 327.735779,255.575790 
	C334.377075,246.143784 339.198181,236.361542 341.355804,224.509735 
	C344.964996,204.684250 359.313660,193.307724 377.748779,187.078568 
	C391.772217,182.340134 406.071686,182.567276 420.111938,187.050354 
	C454.781647,198.120422 469.745758,234.813766 448.413391,265.809662 
	C445.482605,270.068054 440.770508,273.100494 436.584229,276.964905 
M383.375793,198.987930 
	C382.710907,198.968872 382.024902,199.049957 381.384430,198.915024 
	C375.894806,197.758575 374.542999,199.313492 374.725586,205.120789 
	C374.782440,206.930710 372.799713,208.831940 371.672668,210.642807 
	C370.850739,211.963425 369.203705,213.199814 369.195251,214.482147 
	C369.185944,215.892090 370.634186,217.310379 371.443359,218.727341 
	C372.603943,220.759689 374.711792,222.786163 374.728790,224.829208 
	C374.768829,229.631973 376.793152,232.027695 381.479584,230.631500 
	C384.747131,229.658020 386.754547,230.338867 388.607361,233.054047 
	C390.484833,235.805313 394.868469,235.379257 397.403473,233.451721 
	C399.612427,231.772110 402.731140,230.378983 405.413452,230.437485 
	C409.840393,230.534012 411.590424,229.401398 411.117767,225.007065 
	C410.823700,222.272842 411.001343,219.888992 414.339935,218.664551 
	C415.549011,218.221130 416.827271,216.019043 416.780884,214.663635 
	C416.737091,213.383362 414.863647,212.242462 414.032837,210.893738 
	C412.881073,209.023941 411.057129,206.994324 411.106232,205.073669 
	C411.221710,200.556610 409.360504,198.417984 404.751831,198.903152 
	C401.586670,199.236374 398.677032,199.331314 396.715454,195.655060 
	C395.218292,192.849274 390.684479,193.477448 388.408447,196.018555 
	C387.293396,197.263412 385.611664,198.000671 383.375793,198.987930 
M432.121094,264.847595 
	C433.301788,263.341736 435.734436,261.504059 435.438965,260.389496 
	C434.358734,256.314178 436.026978,254.213638 439.193817,252.292572 
	C441.919067,250.639389 441.765686,247.303360 438.955139,245.971344 
	C435.827148,244.488892 434.450836,242.553055 435.449646,238.915573 
	C436.397095,235.465271 433.713257,232.905853 430.324524,233.927155 
	C426.415009,235.105392 424.026642,233.275070 421.178589,230.928284 
	C419.616241,229.640900 414.882324,229.272919 414.352997,230.155106 
	C411.685669,234.600433 408.125519,233.983032 404.011078,233.783508 
	C402.546143,233.712463 399.387695,236.970673 399.659851,237.659851 
	C401.872925,243.264786 398.255035,244.966187 394.366760,246.668701 
	C393.351318,249.836746 394.292603,251.692093 397.343109,253.413162 
	C398.942596,254.315582 400.154633,257.296204 400.160278,259.342133 
	C400.171936,263.587708 401.956268,265.922638 406.044464,264.779266 
	C409.871979,263.708801 412.192017,264.555298 414.112244,268.031372 
	C415.673340,270.857330 419.665497,270.881348 421.300446,268.194275 
	C423.776337,264.125153 427.094666,263.246582 432.121094,264.847595 
z"/>
<path fill="#551690" opacity="1.000000" stroke="none" 
	d="
M260.644684,199.017731 
	C267.141907,200.549652 273.313171,201.662003 279.177887,203.669769 
	C294.429932,208.891235 303.750946,220.292450 309.766998,234.670837 
	C313.968445,244.712341 314.568573,255.418655 315.107910,266.865540 
	C286.275787,266.865540 257.892029,266.865540 229.562531,266.865540 
	C228.919601,277.051056 233.701874,287.011322 240.149994,289.940674 
	C252.348724,295.482483 264.901886,293.292603 270.331970,286.127472 
	C272.877533,282.768555 276.076355,281.774780 280.273590,281.904327 
	C290.595612,282.222931 300.932709,282.049622 311.263733,282.086853 
	C311.586212,282.088013 311.908173,282.229309 313.001953,282.487152 
	C309.518524,292.034668 305.549347,301.175201 297.542877,307.675751 
	C285.532593,317.427063 271.572449,321.176392 256.097961,321.169556 
	C243.488739,321.164001 231.195724,320.139526 219.951950,314.358643 
	C202.005051,305.131470 191.630630,290.364075 188.895233,270.118622 
	C186.612961,253.226913 189.290588,237.553040 198.913651,223.391769 
	C208.353104,209.500656 221.834442,201.973541 238.352249,200.072845 
	C245.573151,199.241943 252.900192,199.333496 260.644684,199.017731 
M274.544342,243.966629 
	C274.731628,242.113052 275.564789,240.031860 275.004425,238.441757 
	C270.316223,225.138519 255.453140,220.767853 241.793701,227.099503 
	C235.234344,230.139999 230.717682,237.467560 231.589737,243.990753 
	C245.579987,243.990753 259.649017,243.990753 274.544342,243.966629 
z"/>
<path fill="#541690" opacity="1.000000" stroke="none" 
	d="
M871.829895,301.894196 
	C871.829895,306.685638 871.829895,311.477112 871.829895,316.630066 
	C858.274292,316.630066 845.048523,316.630066 831.000366,316.630066 
	C831.000366,314.659210 831.000427,312.738373 831.000366,310.817535 
	C831.000183,291.834351 831.103027,272.850159 830.914551,253.868851 
	C830.876038,249.985199 829.586670,246.130051 829.152222,242.230743 
	C828.332214,234.870209 816.569519,230.151520 810.327881,231.345322 
	C795.191162,234.240417 791.461914,242.001328 791.113770,255.737061 
	C790.654053,273.875977 791.000122,292.035339 790.999878,310.185913 
	C790.999817,312.165588 790.999817,314.145294 790.999817,316.951752 
	C777.737000,316.951752 764.832520,316.951752 751.462402,316.434692 
	C750.996704,278.000549 750.996704,240.083481 750.996704,202.166428 
	C764.097168,202.166428 777.197632,202.166428 790.799500,202.166428 
	C790.799500,206.600647 790.799500,210.692123 790.799500,216.257126 
	C794.370667,212.956848 796.845947,210.446854 799.549011,208.212357 
	C808.159058,201.094910 818.487122,199.638840 829.151428,199.710449 
	C838.345886,199.772171 847.047668,201.640533 854.902832,206.909470 
	C865.664795,214.128159 870.248474,224.473053 870.966736,237.868988 
	C870.980835,257.184937 870.995483,275.593536 871.101929,294.001556 
	C871.117188,296.633759 871.576233,299.263367 871.829895,301.894196 
z"/>
<path fill="#55178F" opacity="1.000000" stroke="none" 
	d="
M562.735168,254.240814 
	C580.121277,273.167969 573.834595,306.136566 545.300720,316.576965 
	C519.994202,325.836517 495.332733,321.687347 471.509583,308.031006 
	C476.547821,298.381653 481.487061,288.921814 486.493469,279.333405 
	C495.026215,285.395599 504.485107,289.170685 514.692322,290.628784 
	C518.483582,291.170349 522.956726,291.016968 526.279236,289.426392 
	C528.782471,288.228058 531.336731,284.266602 531.400940,281.478271 
	C531.512695,276.623291 527.042603,274.370941 522.808228,273.146484 
	C515.556335,271.049377 508.080475,269.685272 500.906006,267.370697 
	C486.563446,262.743652 480.381348,251.776764 480.741821,236.740280 
	C481.250244,215.532944 500.553467,200.761246 519.994751,198.734344 
	C535.875732,197.078629 550.851196,199.231506 565.741638,204.052567 
	C566.668945,204.352798 567.519409,204.890396 568.864075,205.538528 
	C564.382690,214.068832 559.959229,222.488846 555.358521,231.246338 
	C552.661194,230.233368 550.304443,228.928528 547.796265,228.490189 
	C541.823425,227.446350 535.798706,226.479630 529.757019,226.122574 
	C525.317505,225.860214 520.593628,229.718018 521.363037,233.324509 
	C521.966614,236.153870 524.721985,239.266403 527.364929,240.731216 
	C530.692871,242.575745 534.845642,243.044174 538.702637,243.799454 
	C547.375488,245.497772 555.540649,248.282394 562.735168,254.240814 
z"/>
<path fill="#903F6C" opacity="1.000000" stroke="none" 
	d="
M750.637451,202.384766 
	C750.996704,240.083481 750.996704,278.000549 750.996704,316.375580 
	C750.665161,315.647827 750.045532,314.462494 750.043945,313.276337 
	C749.996216,277.040863 750.007690,240.805344 750.023621,204.569824 
	C750.023926,203.914230 750.189636,203.258682 750.637451,202.384766 
z"/>
<path fill="#6A2583" opacity="1.000000" stroke="none" 
	d="
M871.886047,301.438232 
	C871.576233,299.263367 871.117188,296.633759 871.101929,294.001556 
	C870.995483,275.593536 870.980835,257.184937 870.962891,238.294098 
	C871.330383,239.179779 871.966125,240.547272 871.968994,241.916077 
	C872.010010,261.604706 871.965881,281.293488 871.886047,301.438232 
z"/>
<path fill="#762E7B" opacity="1.000000" stroke="none" 
	d="
M999.601440,280.648804 
	C985.252563,280.997406 970.671509,281.031372 956.090759,280.965637 
	C953.631226,280.954559 951.173706,280.513367 948.330322,280.109741 
	C965.086792,280.065948 982.228088,280.183289 999.601440,280.648804 
z"/>
<path fill="#792F7A" opacity="1.000000" stroke="none" 
	d="
M996.603027,213.647369 
	C982.919434,213.996338 969.005066,214.026093 955.091125,213.963379 
	C952.963684,213.953796 950.838196,213.516998 948.328430,213.112732 
	C964.087524,213.064438 980.230042,213.181198 996.603027,213.647369 
z"/>
<path fill="#742C7E" opacity="1.000000" stroke="none" 
	d="
M948.031616,279.581329 
	C947.940186,270.321228 947.830750,260.588196 947.878784,250.486679 
	C948.028687,259.781586 948.021179,269.445007 948.031616,279.581329 
z"/>
<path fill="#742C7E" opacity="1.000000" stroke="none" 
	d="
M948.030762,212.580261 
	C947.939148,203.653702 947.830322,194.254379 947.878906,184.486511 
	C948.028809,193.447815 948.021179,202.777634 948.030762,212.580261 
z"/>
<path fill="#000000" opacity="1.000000" stroke="none" 
	d="
M1072.188232,185.419220 
	C1083.800659,182.436859 1095.047363,184.001236 1105.356445,189.090546 
	C1123.740845,198.166351 1131.407959,214.329666 1130.820190,234.008347 
	C1130.147827,256.522491 1117.756714,275.030853 1092.905273,279.760101 
	C1086.346191,281.008301 1079.480713,280.647491 1072.084229,281.063293 
	C1072.084229,248.968582 1072.084229,217.422501 1072.188232,185.419220 
z"/>
<path fill="#000000" opacity="1.000000" stroke="none" 
	d="
M110.257278,216.233032 
	C106.930984,218.298752 104.064758,220.954681 100.757393,221.730850 
	C94.590370,223.178131 88.166824,223.532349 81.381615,224.401459 
	C81.381615,209.689743 81.381615,195.801025 81.381615,181.899887 
	C92.630585,179.319839 109.223900,182.072220 113.896172,193.521011 
	C117.190926,201.594391 116.441887,209.417908 110.257278,216.233032 
z"/>
<path fill="#000000" opacity="1.000000" stroke="none" 
	d="
M631.005676,257.272156 
	C633.617004,235.056808 658.153992,226.023270 674.000732,238.055969 
	C683.711792,245.429733 686.441650,255.829376 683.639465,267.389862 
	C681.149536,277.662079 671.144653,284.742645 661.009949,286.126953 
	C642.976257,288.590240 629.231506,271.836304 631.005676,257.272156 
z"/>
<path fill="#000000" opacity="1.000000" stroke="none" 
	d="
M383.781097,198.977798 
	C385.611664,198.000671 387.293396,197.263412 388.408447,196.018555 
	C390.684479,193.477448 395.218292,192.849274 396.715454,195.655060 
	C398.677032,199.331314 401.586670,199.236374 404.751831,198.903152 
	C409.360504,198.417984 411.221710,200.556610 411.106232,205.073669 
	C411.057129,206.994324 412.881073,209.023941 414.032837,210.893738 
	C414.863647,212.242462 416.737091,213.383362 416.780884,214.663635 
	C416.827271,216.019043 415.549011,218.221130 414.339935,218.664551 
	C411.001343,219.888992 410.823700,222.272842 411.117767,225.007065 
	C411.590424,229.401398 409.840393,230.534012 405.413452,230.437485 
	C402.731140,230.378983 399.612427,231.772110 397.403473,233.451721 
	C394.868469,235.379257 390.484833,235.805313 388.607361,233.054047 
	C386.754547,230.338867 384.747131,229.658020 381.479584,230.631500 
	C376.793152,232.027695 374.768829,229.631973 374.728790,224.829208 
	C374.711792,222.786163 372.603943,220.759689 371.443359,218.727341 
	C370.634186,217.310379 369.185944,215.892090 369.195251,214.482147 
	C369.203705,213.199814 370.850739,211.963425 371.672668,210.642807 
	C372.799713,208.831940 374.782440,206.930710 374.725586,205.120789 
	C374.542999,199.313492 375.894806,197.758575 381.384430,198.915024 
	C382.024902,199.049957 382.710907,198.968872 383.781097,198.977798 
M397.912567,219.508682 
	C400.648102,217.095276 401.661194,213.881516 398.910980,211.451904 
	C396.932892,209.704437 393.483887,208.584656 390.867157,208.859802 
	C387.590088,209.204422 384.640686,211.571945 385.135071,215.654984 
	C385.580811,219.336533 388.401306,220.975403 391.747528,221.184937 
	C393.559692,221.298416 395.437805,220.358963 397.912567,219.508682 
z"/>
<path fill="#000000" opacity="1.000000" stroke="none" 
	d="
M431.732666,264.878143 
	C427.094666,263.246582 423.776337,264.125153 421.300446,268.194275 
	C419.665497,270.881348 415.673340,270.857330 414.112244,268.031372 
	C412.192017,264.555298 409.871979,263.708801 406.044464,264.779266 
	C401.956268,265.922638 400.171936,263.587708 400.160278,259.342133 
	C400.154633,257.296204 398.942596,254.315582 397.343109,253.413162 
	C394.292603,251.692093 393.351318,249.836746 394.366760,246.668701 
	C398.255035,244.966187 401.872925,243.264786 399.659851,237.659851 
	C399.387695,236.970673 402.546143,233.712463 404.011078,233.783508 
	C408.125519,233.983032 411.685669,234.600433 414.352997,230.155106 
	C414.882324,229.272919 419.616241,229.640900 421.178589,230.928284 
	C424.026642,233.275070 426.415009,235.105392 430.324524,233.927155 
	C433.713257,232.905853 436.397095,235.465271 435.449646,238.915573 
	C434.450836,242.553055 435.827148,244.488892 438.955139,245.971344 
	C441.765686,247.303360 441.919067,250.639389 439.193817,252.292572 
	C436.026978,254.213638 434.358734,256.314178 435.438965,260.389496 
	C435.734436,261.504059 433.301788,263.341736 431.732666,264.878143 
M420.513000,255.996719 
	C425.306641,253.714111 427.146973,250.347260 425.427948,247.004837 
	C423.536072,243.326324 418.283752,241.433746 414.025421,243.132431 
	C410.119568,244.690521 409.441284,248.041077 410.123383,251.699631 
	C410.704803,254.818207 415.244415,256.778229 420.513000,255.996719 
z"/>
<path fill="#000000" opacity="1.000000" stroke="none" 
	d="
M274.131195,243.978699 
	C259.649017,243.990753 245.579987,243.990753 231.589737,243.990753 
	C230.717682,237.467560 235.234344,230.139999 241.793701,227.099503 
	C255.453140,220.767853 270.316223,225.138519 275.004425,238.441757 
	C275.564789,240.031860 274.731628,242.113052 274.131195,243.978699 
z"/>
<path fill="#541690" opacity="1.000000" stroke="none" 
	d="
M397.599365,219.701584 
	C395.437805,220.358963 393.559692,221.298416 391.747528,221.184937 
	C388.401306,220.975403 385.580811,219.336533 385.135071,215.654984 
	C384.640686,211.571945 387.590088,209.204422 390.867157,208.859802 
	C393.483887,208.584656 396.932892,209.704437 398.910980,211.451904 
	C401.661194,213.881516 400.648102,217.095276 397.599365,219.701584 
z"/>
<path fill="#58198E" opacity="1.000000" stroke="none" 
	d="
M420.133301,256.056976 
	C415.244415,256.778229 410.704803,254.818207 410.123383,251.699631 
	C409.441284,248.041077 410.119568,244.690521 414.025421,243.132431 
	C418.283752,241.433746 423.536072,243.326324 425.427948,247.004837 
	C427.146973,250.347260 425.306641,253.714111 420.133301,256.056976 
z"/>
</svg>