<svg xmlns="http://www.w3.org/2000/svg" version="1.1" width="1209px" height="501px" style="shape-rendering:geometricPrecision; text-rendering:geometricPrecision; image-rendering:optimizeQuality; fill-rule:evenodd; clip-rule:evenodd" xmlns:xlink="http://www.w3.org/1999/xlink">
<g><path style="opacity:1" fill="#fefffe" d="M 35.5,146.5 C 61.8354,146.333 88.1688,146.5 114.5,147C 136.834,149.907 151.334,162.073 158,183.5C 163.197,204.223 158.364,222.057 143.5,237C 137.219,240.974 130.552,244.14 123.5,246.5C 140.833,269.167 158.167,291.833 175.5,314.5C 157.509,315.666 139.509,315.833 121.5,315C 107.293,294.09 93.4601,272.923 80,251.5C 79.5,272.831 79.3334,294.164 79.5,315.5C 64.8333,315.5 50.1667,315.5 35.5,315.5C 35.5,259.167 35.5,202.833 35.5,146.5 Z M 79.5,179.5 C 88.116,178.875 96.4493,180.042 104.5,183C 117.346,194.272 117.679,205.939 105.5,218C 97.1397,221.132 88.4731,222.299 79.5,221.5C 79.5,207.5 79.5,193.5 79.5,179.5 Z"/></g>
<g><path style="opacity:1" fill="#fefffe" d="M 902.5,146.5 C 934.5,146.5 966.5,146.5 998.5,146.5C 998.5,158.5 998.5,170.5 998.5,182.5C 981.167,182.5 963.833,182.5 946.5,182.5C 946.5,192.167 946.5,201.833 946.5,211.5C 962.833,211.5 979.167,211.5 995.5,211.5C 995.5,223.833 995.5,236.167 995.5,248.5C 979.167,248.5 962.833,248.5 946.5,248.5C 946.5,258.5 946.5,268.5 946.5,278.5C 963.833,278.5 981.167,278.5 998.5,278.5C 998.5,290.833 998.5,303.167 998.5,315.5C 966.5,315.5 934.5,315.5 902.5,315.5C 902.5,259.167 902.5,202.833 902.5,146.5 Z"/></g>
<g><path style="opacity:1" fill="#fefffe" d="M 1026.5,146.5 C 1051.84,146.333 1077.17,146.5 1102.5,147C 1137.98,154.145 1161.14,174.978 1172,209.5C 1179.76,250.473 1166.26,282.306 1131.5,305C 1121.47,310.345 1110.8,313.678 1099.5,315C 1075.17,315.5 1050.84,315.667 1026.5,315.5C 1026.5,259.167 1026.5,202.833 1026.5,146.5 Z M 1070.5,182.5 C 1090.33,179.937 1106.83,185.937 1120,200.5C 1132.93,221.41 1132.6,242.077 1119,262.5C 1105.71,276.318 1089.54,281.652 1070.5,278.5C 1070.5,246.5 1070.5,214.5 1070.5,182.5 Z"/></g>
<g><path style="opacity:1" fill="#fefffe" d="M 386.5,182.5 C 409.967,179.646 429.801,186.646 446,203.5C 459.613,223.566 459.947,243.9 447,264.5C 442.967,268.868 438.634,272.868 434,276.5C 433.5,290.829 433.333,305.163 433.5,319.5C 412.5,319.5 391.5,319.5 370.5,319.5C 370.5,312.833 370.5,306.167 370.5,299.5C 347.423,301.751 336.423,291.418 337.5,268.5C 333.818,268.665 330.152,268.499 326.5,268C 322.876,265.839 321.709,262.672 323,258.5C 327.915,251.672 332.581,244.672 337,237.5C 340.022,206.981 356.522,188.647 386.5,182.5 Z M 387.5,192.5 C 389.857,192.337 392.19,192.503 394.5,193C 396.979,197.488 400.646,198.655 405.5,196.5C 410.068,198.442 411.068,201.275 408.5,205C 409.76,207.928 411.927,209.761 415,210.5C 416.205,214.734 414.705,217.401 410.5,218.5C 409.167,220.833 409.167,223.167 410.5,225.5C 409.687,226.814 408.687,227.981 407.5,229C 404.867,228.747 402.2,228.747 399.5,229C 397.479,229.401 396.145,230.568 395.5,232.5C 392.833,233.833 390.167,233.833 387.5,232.5C 387.032,230.866 386.032,229.7 384.5,229C 381.514,229.128 378.514,229.128 375.5,229C 374.313,227.981 373.313,226.814 372.5,225.5C 374.591,220.92 373.258,217.92 368.5,216.5C 367.526,214.257 367.192,211.924 367.5,209.5C 372.877,208.918 374.543,206.085 372.5,201C 373.101,199.395 374.101,198.062 375.5,197C 378.46,197.32 381.46,197.32 384.5,197C 386.376,196.082 387.376,194.582 387.5,192.5 Z M 412.5,227.5 C 414.924,227.192 417.257,227.526 419.5,228.5C 422.719,233.08 426.719,234.247 431.5,232C 432.899,233.062 433.899,234.395 434.5,236C 432.457,241.085 434.123,243.918 439.5,244.5C 439.799,246.604 439.466,248.604 438.5,250.5C 436.259,251.032 434.759,252.365 434,254.5C 434.053,256.936 433.887,259.269 433.5,261.5C 431.453,263.736 429.12,264.069 426.5,262.5C 422.942,262.559 420.609,264.226 419.5,267.5C 417.579,268.641 415.579,268.808 413.5,268C 412.687,266.197 411.52,264.697 410,263.5C 406.892,263.044 403.725,262.878 400.5,263C 398.327,261.135 397.993,258.969 399.5,256.5C 398.5,253.5 396.5,251.5 393.5,250.5C 392.534,248.604 392.201,246.604 392.5,244.5C 396.127,244.379 398.46,242.545 399.5,239C 396.681,236.28 397.014,233.947 400.5,232C 403.428,232.456 406.428,232.456 409.5,232C 411.376,231.082 412.376,229.582 412.5,227.5 Z"/></g>
<g><path style="opacity:1" fill="#fefffe" d="M 519.5,196.5 C 536.094,195.323 552.094,197.823 567.5,204C 563.287,212.935 558.454,221.435 553,229.5C 544.316,225.037 535.15,223.537 525.5,225C 518.101,229.236 517.768,233.903 524.5,239C 534.019,241.046 543.352,243.713 552.5,247C 567.548,255.425 573.382,268.258 570,285.5C 566.529,299.64 558.029,309.474 544.5,315C 522.801,321.741 501.468,320.741 480.5,312C 476.806,310.491 473.473,308.491 470.5,306C 475.453,296.594 480.287,287.094 485,277.5C 497.008,286.877 510.508,290.377 525.5,288C 532.331,281.44 531.331,276.106 522.5,272C 514.802,270.127 507.136,268.127 499.5,266C 485.658,261.326 478.658,251.659 478.5,237C 482.035,213.298 495.702,199.798 519.5,196.5 Z"/></g>
<g><path style="opacity:1" fill="#fefffe" d="M 645.5,196.5 C 671.658,193.162 693.825,200.828 712,219.5C 727.996,241.75 729.662,265.083 717,289.5C 705.664,307.093 689.497,316.926 668.5,319C 643.458,322.759 621.625,316.259 603,299.5C 586.637,279.701 582.97,257.701 592,233.5C 603.285,211.614 621.118,199.281 645.5,196.5 Z M 649.5,231.5 C 670.395,229.758 681.729,239.092 683.5,259.5C 678.334,281.254 665.001,288.754 643.5,282C 629.647,272.424 626.147,259.924 633,244.5C 636.939,238.048 642.439,233.714 649.5,231.5 Z"/></g>
<g><path style="opacity:1" fill="#fefffe" d="M 239.5,197.5 C 288.106,194.134 312.772,216.8 313.5,265.5C 284.833,265.5 256.167,265.5 227.5,265.5C 229.135,286.955 240.468,295.122 261.5,290C 265.748,287.757 269.414,284.757 272.5,281C 285.513,280.167 298.513,280.334 311.5,281.5C 304.022,302.92 289.022,315.42 266.5,319C 248.282,321.736 230.949,319.07 214.5,311C 193.611,296.715 184.444,276.882 187,251.5C 190.913,220.089 208.413,202.089 239.5,197.5 Z M 249.5,222.5 C 263.458,221.976 272.125,228.476 275.5,242C 260.17,242.5 244.837,242.667 229.5,242.5C 231.183,230.817 237.85,224.15 249.5,222.5 Z"/></g>
<g><path style="opacity:1" fill="#fefffe" d="M 826.5,197.5 C 852.344,197.985 866.844,210.985 870,236.5C 870.5,262.831 870.667,289.165 870.5,315.5C 856.833,315.5 843.167,315.5 829.5,315.5C 829.951,290.79 829.451,266.123 828,241.5C 826.594,236.427 823.428,232.927 818.5,231C 805.881,227.728 796.714,231.895 791,243.5C 789.561,267.462 789.061,291.462 789.5,315.5C 775.833,315.5 762.167,315.5 748.5,315.5C 748.5,277.167 748.5,238.833 748.5,200.5C 762.167,200.5 775.833,200.5 789.5,200.5C 789.334,205.179 789.501,209.845 790,214.5C 799.604,203.141 811.771,197.474 826.5,197.5 Z"/></g>
<g><path style="opacity:1" fill="#fefffe" d="M 389.5,206.5 C 394.327,206.411 397.661,208.578 399.5,213C 396.477,219.673 391.81,221.34 385.5,218C 382.423,212.651 383.756,208.817 389.5,206.5 Z"/></g>
<g><path style="opacity:1" fill="#fefffe" d="M 415.5,240.5 C 424.143,242.077 426.143,246.41 421.5,253.5C 417.78,255.998 414.113,255.831 410.5,253C 406.718,246.559 408.385,242.393 415.5,240.5 Z"/></g>
</svg>
