<?xml version="1.0" encoding="UTF-8" standalone="no"?>
<!-- Created with Inkscape (http://www.inkscape.org/) -->

<svg
   xmlns:dc="http://purl.org/dc/elements/1.1/"
   xmlns:cc="http://creativecommons.org/ns#"
   xmlns:rdf="http://www.w3.org/1999/02/22-rdf-syntax-ns#"
   xmlns:svg="http://www.w3.org/2000/svg"
   xmlns="http://www.w3.org/2000/svg"
   xmlns:sodipodi="http://sodipodi.sourceforge.net/DTD/sodipodi-0.dtd"
   xmlns:inkscape="http://www.inkscape.org/namespaces/inkscape"
   width="4969.752"
   height="512.00006"
   viewBox="0 0 1314.9135 135.46669"
   version="1.1"
   id="svg23489"
   inkscape:version="0.48.5 r10040"
   sodipodi:docname="New document 2">
  <defs
     id="defs23483">
    <filter
       inkscape:collect="always"
       id="filter5348"
       color-interpolation-filters="sRGB">
      <feGaussianBlur
         inkscape:collect="always"
         stdDeviation="5.742917"
         id="feGaussianBlur5350" />
    </filter>
    <filter
       inkscape:collect="always"
       id="filter5441"
       x="-0.021248201"
       width="1.0424964"
       y="-0.11774752"
       height="1.235495"
       color-interpolation-filters="sRGB">
      <feGaussianBlur
         inkscape:collect="always"
         stdDeviation="0.768668"
         id="feGaussianBlur5443" />
    </filter>
    <filter
       inkscape:collect="always"
       id="filter5523"
       color-interpolation-filters="sRGB">
      <feGaussianBlur
         inkscape:collect="always"
         stdDeviation="5.1330635"
         id="feGaussianBlur5525" />
    </filter>
    <filter
       inkscape:collect="always"
       id="filter5545"
       color-interpolation-filters="sRGB">
      <feGaussianBlur
         inkscape:collect="always"
         stdDeviation="5.0720537"
         id="feGaussianBlur5547" />
    </filter>
  </defs>
  <sodipodi:namedview
     id="base"
     pagecolor="#7d848b"
     bordercolor="#666666"
     borderopacity="1.0"
     inkscape:pageopacity="0"
     inkscape:pageshadow="2"
     inkscape:zoom="0.21308932"
     inkscape:cx="2210.6753"
     inkscape:cy="-410.82352"
     inkscape:document-units="px"
     inkscape:current-layer="layer1"
     showgrid="false"
     inkscape:pagecheckerboard="false"
     showborder="true"
     units="px"
     inkscape:window-width="1920"
     inkscape:window-height="1017"
     inkscape:window-x="-8"
     inkscape:window-y="-8"
     inkscape:window-maximized="1"
     inkscape:showpageshadow="false"
     guidetolerance="28"
     fit-margin-top="0"
     fit-margin-left="0"
     fit-margin-right="0"
     fit-margin-bottom="0">
    <inkscape:grid
       type="xygrid"
       id="grid24034"
       spacingx="1px"
       spacingy="1px"
       empspacing="8"
       visible="true"
       enabled="true"
       snapvisiblegridlinesonly="true"
       originx="886.00329px"
       originy="385.49411px" />
  </sodipodi:namedview>
  <metadata
     id="metadata23486">
    <rdf:RDF>
      <cc:Work
         rdf:about="">
        <dc:format>image/svg+xml</dc:format>
        <dc:type
           rdf:resource="http://purl.org/dc/dcmitype/StillImage" />
        <dc:title></dc:title>
        <cc:license
           rdf:resource="" />
        <dc:creator>
          <cc:Agent>
            <dc:title>Robert Brooks</dc:title>
          </cc:Agent>
        </dc:creator>
      </cc:Work>
    </rdf:RDF>
  </metadata>
  <g
     inkscape:label="Layer 1"
     inkscape:groupmode="layer"
     id="layer1"
     transform="translate(234.42171,-263.52863)">
    <g
       id="g5463"
       transform="matrix(1.9702346,0,0,1.9702346,-656.94131,-133.56783)"
       inkscape:export-filename="C:\Users\rober\Desktop\assets\FREE_FRIDAY\free_friday_december_16th\double_jump_effect\02.png"
       inkscape:export-xdpi="90"
       inkscape:export-ydpi="90">
      <path
         style="color:#000000;fill:#000000;fill-opacity:1;fill-rule:nonzero;stroke:none;stroke-width:25;marker:none;visibility:visible;display:inline;overflow:visible;enable-background:accumulate;opacity:0"
         d="m 347.92929,201.54781 133.47788,0 0,68.75662 -133.47788,0 z"
         id="rect5447"
         inkscape:connector-curvature="0"
         sodipodi:nodetypes="ccccc" />
      <g
         transform="translate(19.754604,0)"
         id="g5366">
        <g
           id="g5358">
          <path
             transform="matrix(0.24265219,0,0,0.13971962,350.43406,140.12989)"
             d="m 271.69061,545.27551 c 0,5.3835 -39.46337,9.74768 -88.1439,9.74768 -48.68053,0 -88.143901,-4.36418 -88.143901,-9.74768 0,-5.38349 39.463371,-9.74768 88.143901,-9.74768 48.68053,0 88.1439,4.36419 88.1439,9.74768 z"
             sodipodi:ry="9.7476788"
             sodipodi:rx="88.143898"
             sodipodi:cy="545.27551"
             sodipodi:cx="183.54671"
             id="path4753"
             style="color:#000000;fill:#ffffff;fill-opacity:1;fill-rule:nonzero;stroke:none;stroke-width:25;marker:none;visibility:visible;display:inline;overflow:visible;enable-background:accumulate"
             sodipodi:type="arc" />
          <path
             sodipodi:nodetypes="ccccccccccccccccc"
             inkscape:connector-curvature="0"
             id="path5319"
             transform="matrix(0.26458334,0,0,0.26458334,-6.3049604e-6,18.562493)"
             d="m 1438.9062,744.96875 -13.0261,51.37597 22.2761,-16.93847 8.8665,36.29931 16.3211,-29.67431 14.5624,76.8125 4.7813,20.65625 3.1875,9.96582 3.2188,-9.96582 4.8124,-20.65625 14.5626,-76.8125 15.875,10.59375 9.2812,-17.21875 27.2849,48.87767 -18.0037,-83.31517 -57,3.78125 z"
             style="color:#000000;fill:#ffffff;fill-opacity:1;fill-rule:nonzero;stroke:none;stroke-width:25;marker:none;visibility:visible;display:inline;overflow:visible;enable-background:accumulate" />
          <path
             transform="matrix(0.26458334,0,0,0.26458334,-6.3049604e-6,18.562493)"
             inkscape:connector-curvature="0"
             id="path5324"
             d="m 1448.4635,757.85786 c -12.029,53.92332 -19.4953,91.25486 -15.3474,79.6406 4.148,-11.61425 17.4214,-36.91674 21.5693,-47.28661 4.148,-10.36987 6.6368,-15.7622 7.0516,-8.71069 0.4148,7.05151 5.3923,47.70141 7.0515,41.06469 1.6591,-6.63672 7.0515,-26.54687 8.2959,-31.9392 1.2444,-5.39233 24.4729,-19.91015 31.5244,-4.56274 7.0515,15.3474 31.5244,92.08445 29.8652,81.71458 -1.6592,-10.36987 -9.1255,-85.86253 -7.8811,-80.88499 1.2444,4.97753 5.3923,-5.80713 7.0515,-2.48877 1.6592,3.31836 10.3699,26.96166 9.5403,21.56933 -0.8296,-5.39234 -0.4148,-36.08715 -1.6592,-37.74633 -1.2444,-1.65918 1.2444,-16.59179 -8.2959,-18.25097 -9.5403,-1.65918 -58.0713,0.82959 -63.4636,2.07397 -5.3923,1.24438 -25.3025,5.80713 -25.3025,5.80713 z"
             style="opacity:0.52212387;color:#000000;fill:#ffffff;fill-opacity:1;fill-rule:nonzero;stroke:none;stroke-width:25;marker:none;visibility:visible;display:inline;overflow:visible;enable-background:accumulate" />
          <path
             style="color:#000000;fill:#ffffff;fill-opacity:1;fill-rule:nonzero;stroke:none;stroke-width:25;marker:none;visibility:visible;display:inline;overflow:visible;filter:url(#filter5348);enable-background:accumulate"
             d="m 1438.9062,744.96875 -13.0261,51.37597 22.2761,-16.93847 8.8665,36.29931 16.3211,-29.67431 14.5624,76.8125 4.7813,20.65625 3.1875,9.96582 3.2188,-9.96582 4.8124,-20.65625 14.5626,-76.8125 15.875,10.59375 9.2812,-17.21875 27.2849,48.87767 -18.0037,-83.31517 -57,3.78125 z"
             transform="matrix(0.26458334,0,0,0.26458334,-6.3049604e-6,18.562493)"
             id="path5346"
             inkscape:connector-curvature="0"
             sodipodi:nodetypes="ccccccccccccccccc" />
          <path
             sodipodi:nodetypes="cccscscccssscccscccscc"
             inkscape:connector-curvature="0"
             id="path5337"
             d="m 388.48512,213.74528 c 0,0 -18.34691,-1.09961 -25.43765,-0.0436 -11.37266,1.65535 -11.27793,7.5629 -9.76773,7.24 0.98771,-0.43899 4.93741,-1.97476 8.88833,0.76894 3.95092,2.74369 4.06265,5.15867 4.72115,4.39043 0.65852,-0.76823 6.36164,-4.50392 13.82448,-4.61367 7.46291,-0.10975 15.25259,8.23671 15.36239,7.35873 0.002,-0.0197 0.006,-0.0858 0.008,-0.11576 0.0574,0.0562 0.0886,0.0968 0.091,0.11576 0.10978,0.87798 7.89948,-7.46848 15.36235,-7.35873 7.46289,0.10975 13.16598,3.84544 13.82448,4.61367 0.65852,0.76824 0.77025,-1.64674 4.72117,-4.39043 3.95092,-2.7437 7.90059,-1.20793 8.88836,-0.76894 0.98771,0.43899 1.20701,-6.69126 -11.30423,-6.69126 l -9.08525,0.0435 c 9.63221,0.46217 15.89156,1.19031 15.89156,2.01745 0,1.36751 -17.03538,2.48108 -38.32326,2.53008 -5.5e-4,0.0929 -0.0223,0.17572 -0.0496,0.25631 -5.1e-4,-0.0849 5e-4,-0.1723 0,-0.25631 -21.28788,-0.049 -38.32323,-1.16257 -38.32323,-2.53008 0,-0.82714 1.75969,-1.55528 11.39185,-2.01745 z"
             style="color:#000000;fill:#ffffff;fill-opacity:1;fill-rule:nonzero;stroke:none;stroke-width:25;marker:none;visibility:visible;display:inline;overflow:visible;enable-background:accumulate" />
          <path
             style="color:#000000;fill:#ffffff;fill-opacity:1;fill-rule:nonzero;stroke:none;stroke-width:25;marker:none;visibility:visible;display:inline;overflow:visible;filter:url(#filter5441);enable-background:accumulate"
             d="m 388.48512,213.74528 c 0,0 -18.34691,-1.09961 -25.43765,-0.0436 -11.37266,1.65535 -11.27793,7.5629 -9.76773,7.24 0.98771,-0.43899 4.93741,-1.97476 8.88833,0.76894 3.95092,2.74369 4.06265,5.15867 4.72115,4.39043 0.65852,-0.76823 6.36164,-4.50392 13.82448,-4.61367 7.46291,-0.10975 15.25259,8.23671 15.36239,7.35873 0.002,-0.0197 0.006,-0.0858 0.008,-0.11576 0.0574,0.0562 0.0886,0.0968 0.091,0.11576 0.10978,0.87798 7.89948,-7.46848 15.36235,-7.35873 7.46289,0.10975 13.16598,3.84544 13.82448,4.61367 0.65852,0.76824 0.77025,-1.64674 4.72117,-4.39043 3.95092,-2.7437 7.90059,-1.20793 8.88836,-0.76894 0.98771,0.43899 1.20701,-6.69126 -11.30423,-6.69126 l -9.08525,0.0435 c 9.63221,0.46217 15.89156,1.19031 15.89156,2.01745 0,1.36751 -17.03538,2.48108 -38.32326,2.53008 -5.5e-4,0.0929 -0.0223,0.17572 -0.0496,0.25631 -5.1e-4,-0.0849 5e-4,-0.1723 0,-0.25631 -21.28788,-0.049 -38.32323,-1.16257 -38.32323,-2.53008 0,-0.82714 1.75969,-1.55528 11.39185,-2.01745 z"
             id="path5431"
             inkscape:connector-curvature="0"
             sodipodi:nodetypes="cccscscccssscccscccscc" />
        </g>
      </g>
    </g>
    <g
       id="g5453"
       transform="matrix(1.9702346,0,0,1.9702346,-724.82755,-133.56783)"
       inkscape:export-filename="C:\Users\rober\Desktop\assets\FREE_FRIDAY\free_friday_december_16th\double_jump_effect\01.png"
       inkscape:export-xdpi="90"
       inkscape:export-ydpi="90">
      <path
         style="color:#000000;fill:#000000;fill-opacity:1;fill-rule:nonzero;stroke:none;stroke-width:25;marker:none;visibility:visible;display:inline;overflow:visible;enable-background:accumulate;opacity:0"
         d="m 248.90733,201.54781 133.47788,0 0,68.75662 -133.47788,0 z"
         id="rect5451"
         inkscape:connector-curvature="0"
         sodipodi:nodetypes="ccccc" />
      <path
         inkscape:connector-curvature="0"
         id="path5374"
         d="m 310.33807,213.15527 c -0.87799,0 -10.09552,0.43822 -10.09552,0.43822 -3.95091,0.21949 -14.48527,4.16796 -12.50981,3.72897 1.97545,-0.43899 8.99892,-1.3162 7.24296,-0.43822 -1.75596,0.87799 -4.61602,5.9269 -3.29903,4.39043 1.31699,-1.53646 8.12768,-1.09967 8.12768,-1.09967 0,0 -0.87799,3.07733 0,2.19935 0.38762,-0.38764 2.1418,-1.21093 4.53099,-2.00091 l -1.24023,2.21588 4.23333,-3.08405 c 0.19637,-0.05 0.39566,-0.0928 0.59531,-0.14056 l 0,5.20072 4.82865,-4.16719 4.16719,21.94388 2.85255,-21.94388 1.53786,3.06751 2.52183,-3.99355 c 0.22045,0.0553 0.43738,0.11591 0.65317,0.17363 l 5.60589,3.60495 -0.42995,-1.86035 c 0.95372,0.40823 1.60917,0.76582 1.82727,0.98392 0.87799,0.87798 0,-2.19935 0,-2.19935 0,0 6.80243,-0.4368 8.1194,1.09967 1.31699,1.53647 -1.5348,-3.51245 -3.29076,-4.39043 -1.75596,-0.87798 5.26751,-7.7e-4 7.24297,0.43822 1.97546,0.43899 -8.5589,-3.50948 -12.50982,-3.72897 0,0 -9.21753,-0.43822 -10.09552,-0.43822 -0.70818,0 4.26307,1.27511 7.72253,2.34818 -3.20998,-0.23407 -7.38794,-0.37207 -11.9724,-0.37207 -6.2153,0 -11.70141,0.26345 -15.00685,0.66146 3.40445,-1.11467 9.41189,-2.63757 8.64031,-2.63757 z"
         style="color:#000000;fill:#ffffff;fill-opacity:1;fill-rule:nonzero;stroke:none;stroke-width:25;marker:none;visibility:visible;display:inline;overflow:visible;enable-background:accumulate" />
      <path
         style="color:#000000;fill:#ffffff;fill-opacity:1;fill-rule:nonzero;stroke:none;stroke-width:25;marker:none;visibility:visible;display:inline;overflow:visible;enable-background:accumulate"
         d="m 310.33807,213.15527 c -0.87799,0 -10.09552,0.43822 -10.09552,0.43822 -3.95091,0.21949 -14.48527,4.16796 -12.50981,3.72897 1.97545,-0.43899 8.99892,-1.3162 7.24296,-0.43822 -1.75596,0.87799 -4.61602,5.9269 -3.29903,4.39043 1.31699,-1.53646 8.12768,-1.09967 8.12768,-1.09967 0,0 -0.87799,3.07733 0,2.19935 0.38762,-0.38764 2.1418,-1.21093 4.53099,-2.00091 l -1.24023,2.21588 4.23333,-3.08405 c 0.19637,-0.05 0.39566,-0.0928 0.59531,-0.14056 l 0,5.20072 4.82865,-4.16719 4.16719,21.94388 2.85255,-21.94388 1.53786,3.06751 2.52183,-3.99355 c 0.22045,0.0553 0.43738,0.11591 0.65317,0.17363 l 5.60589,3.60495 -0.42995,-1.86035 c 0.95372,0.40823 1.60917,0.76582 1.82727,0.98392 0.87799,0.87798 0,-2.19935 0,-2.19935 0,0 6.80243,-0.4368 8.1194,1.09967 1.31699,1.53647 -1.5348,-3.51245 -3.29076,-4.39043 -1.75596,-0.87798 5.26751,-7.7e-4 7.24297,0.43822 1.97546,0.43899 -8.5589,-3.50948 -12.50982,-3.72897 0,0 -9.21753,-0.43822 -10.09552,-0.43822 -0.70818,0 4.26307,1.27511 7.72253,2.34818 -3.20998,-0.23407 -7.38794,-0.37207 -11.9724,-0.37207 -6.2153,0 -11.70141,0.26345 -15.00685,0.66146 3.40445,-1.11467 9.41189,-2.63757 8.64031,-2.63757 z"
         id="path5478"
         inkscape:connector-curvature="0" />
    </g>
    <g
       id="g5457"
       transform="matrix(1.9702346,0,0,1.9702346,-393.95858,-133.56783)"
       inkscape:export-filename="C:\Users\rober\Desktop\assets\FREE_FRIDAY\free_friday_december_16th\double_jump_effect\03.png"
       inkscape:export-xdpi="90"
       inkscape:export-ydpi="90">
      <path
         style="color:#000000;fill:#000000;fill-opacity:1;fill-rule:nonzero;stroke:none;stroke-width:25;marker:none;visibility:visible;display:inline;overflow:visible;enable-background:accumulate;opacity:0"
         d="m 347.92929,201.54781 133.47788,0 0,68.75662 -133.47788,0 z"
         id="rect5445"
         inkscape:connector-curvature="0"
         sodipodi:nodetypes="ccccc" />
      <g
         transform="translate(0,-0.3292434)"
         id="g5404">
        <path
           style="color:#000000;fill:#ffffff;fill-opacity:1;fill-rule:nonzero;stroke:none;stroke-width:25;marker:none;visibility:visible;display:inline;overflow:visible;enable-background:accumulate"
           d="m 1037.3438,1399.6562 c -34.1337,0 -61.81255,3.0639 -61.81255,6.8438 0,3.7799 27.67885,6.8438 61.81255,6.8438 34.1336,0 61.7812,-3.0639 61.7812,-6.8438 0,-3.7799 -27.6476,-6.8438 -61.7812,-6.8438 z M 880.3125,1403.5 c -1.4704,0.073 -6,3.1875 -6,3.1875 -16.177,16.177 -18.22475,41.0798 -14.90625,35.6875 3.3184,-5.3923 10.75835,-21.9941 14.90625,-25.3125 4.148,-3.3184 1.25835,-5.3804 5.40625,-11.1875 1.2963,-1.8147 1.26215,-2.4084 0.59375,-2.375 z m 310.5,5.1562 c -3.2147,0.1038 -5.4063,1.375 -5.4063,1.375 18.2511,7.0516 20.75,22.375 20.75,22.375 0,0 5.7982,0.8492 9.5313,6.6563 3.7332,5.8071 4.5882,8.7048 3.3437,3.3125 -1.2445,-5.3923 -8.2978,-19.0933 -16.5937,-28.2188 -4.148,-4.5627 -8.4103,-5.6037 -11.625,-5.5 z m -283.96875,21.4688 c -1.7499,0 3.15625,5.625 3.15625,5.625 6.6368,19.4953 4.56525,38.9861 7.46875,33.5938 2.9036,-5.3924 14.4992,-21.5821 28.1875,-28.2188 13.6882,-6.6367 16.59375,-9.125 16.59375,-9.125 0,0 -20.32615,0.8179 -30.28125,6.625 l -9.9375,5.8125 c 0,0 -0.82615,-5.3945 -10.78125,-12.0313 -2.4888,-1.6591 -3.82285,-2.2812 -4.40625,-2.2812 z m 264.50005,0 c -0.5834,0 -1.8862,0.6221 -4.375,2.2812 -9.9552,6.6368 -10.7813,12.0313 -10.7813,12.0313 l -9.9687,-5.8125 c -9.9551,-5.8071 -30.2813,-6.625 -30.2813,-6.625 0,0 2.9054,2.4883 16.5937,9.125 13.6883,6.6367 25.3152,22.8264 28.2188,28.2188 2.9035,5.3923 0.832,-14.0985 7.4688,-33.5938 0,0 4.875,-5.625 3.125,-5.625 z m -100.375,9.0938 c -0.041,0.017 -0.057,0.094 -0.031,0.25 0.4147,2.4887 2.5,18.6562 2.5,18.6562 3.3184,9.9551 11.1931,32.3579 12.4375,33.1875 1.2443,0.8296 -5.8039,-30.6731 -6.2188,-34.4063 -0.3889,-3.4998 -8.0706,-17.9472 -8.6874,-17.6874 z m -99.5938,1.5 -7.46875,8.7187 -19.46875,33.1563 c 0,0 -13.69055,28.6362 -12.03125,31.125 1.6592,1.6591 24.46875,-41.0626 24.46875,-41.0626 l 14.5,-31.9374 z m 126.125,8.7187 c 3.3184,11.6143 9.926,30.2583 12,34.4063 2.0739,4.1479 17.0286,30.3015 14.125,23.25 -2.9036,-7.0516 -13.7071,-32.7696 -15.7812,-39.4063 -2.0741,-6.6367 -10.3438,-18.25 -10.3438,-18.25 z m -61.8125,0.4063 -1.6563,7.4687 c -2.4889,13.2734 -3.7414,21.9768 -4.1562,30.6875 -0.4148,8.7107 7.051,68.8696 9.125,63.0625 2.0739,-5.8071 5.8125,-53.5308 5.8125,-62.6563 0,-9.1254 -9.125,-38.5624 -9.125,-38.5624 z m -37.34375,5.8124 -7.03125,18.25 -6.65625,47.6876 12.03125,-44.7813 1.65625,-21.1563 z"
           transform="matrix(0.26458334,0,0,0.26458334,141.70382,-154.31908)"
           id="path5383"
           inkscape:connector-curvature="0" />
        <path
           id="path5505"
           transform="matrix(0.26458334,0,0,0.26458334,141.70382,-154.31908)"
           d="m 1037.3438,1399.6562 c -34.1337,0 -61.81255,3.0639 -61.81255,6.8438 0,3.7799 27.67885,6.8438 61.81255,6.8438 34.1336,0 61.7812,-3.0639 61.7812,-6.8438 0,-3.7799 -27.6476,-6.8438 -61.7812,-6.8438 z M 880.3125,1403.5 c -1.4704,0.073 -6,3.1875 -6,3.1875 -16.177,16.177 -18.22475,41.0798 -14.90625,35.6875 3.3184,-5.3923 10.75835,-21.9941 14.90625,-25.3125 4.148,-3.3184 1.25835,-5.3804 5.40625,-11.1875 1.2963,-1.8147 1.26215,-2.4084 0.59375,-2.375 z m 310.5,5.1562 c -3.2147,0.1038 -5.4063,1.375 -5.4063,1.375 18.2511,7.0516 20.75,22.375 20.75,22.375 0,0 5.7982,0.8492 9.5313,6.6563 3.7332,5.8071 4.5882,8.7048 3.3437,3.3125 -1.2445,-5.3923 -8.2978,-19.0933 -16.5937,-28.2188 -4.148,-4.5627 -8.4103,-5.6037 -11.625,-5.5 z m -283.96875,21.4688 c -1.7499,0 3.15625,5.625 3.15625,5.625 6.6368,19.4953 4.56525,38.9861 7.46875,33.5938 2.9036,-5.3924 14.4992,-21.5821 28.1875,-28.2188 13.6882,-6.6367 16.59375,-9.125 16.59375,-9.125 0,0 -20.32615,0.8179 -30.28125,6.625 l -9.9375,5.8125 c 0,0 -0.82615,-5.3945 -10.78125,-12.0313 -2.4888,-1.6591 -3.82285,-2.2812 -4.40625,-2.2812 z m 264.50005,0 c -0.5834,0 -1.8862,0.6221 -4.375,2.2812 -9.9552,6.6368 -10.7813,12.0313 -10.7813,12.0313 l -9.9687,-5.8125 c -9.9551,-5.8071 -30.2813,-6.625 -30.2813,-6.625 0,0 2.9054,2.4883 16.5937,9.125 13.6883,6.6367 25.3152,22.8264 28.2188,28.2188 2.9035,5.3923 0.832,-14.0985 7.4688,-33.5938 0,0 4.875,-5.625 3.125,-5.625 z m -100.375,9.0938 c -0.041,0.017 -0.057,0.094 -0.031,0.25 0.4147,2.4887 2.5,18.6562 2.5,18.6562 3.3184,9.9551 11.1931,32.3579 12.4375,33.1875 1.2443,0.8296 -5.8039,-30.6731 -6.2188,-34.4063 -0.3889,-3.4998 -8.0706,-17.9472 -8.6874,-17.6874 z m -99.5938,1.5 -7.46875,8.7187 -19.46875,33.1563 c 0,0 -13.69055,28.6362 -12.03125,31.125 1.6592,1.6591 24.46875,-41.0626 24.46875,-41.0626 l 14.5,-31.9374 z m 126.125,8.7187 c 3.3184,11.6143 9.926,30.2583 12,34.4063 2.0739,4.1479 17.0286,30.3015 14.125,23.25 -2.9036,-7.0516 -13.7071,-32.7696 -15.7812,-39.4063 -2.0741,-6.6367 -10.3438,-18.25 -10.3438,-18.25 z m -61.8125,0.4063 -1.6563,7.4687 c -2.4889,13.2734 -3.7414,21.9768 -4.1562,30.6875 -0.4148,8.7107 7.051,68.8696 9.125,63.0625 2.0739,-5.8071 5.8125,-53.5308 5.8125,-62.6563 0,-9.1254 -9.125,-38.5624 -9.125,-38.5624 z m -37.34375,5.8124 -7.03125,18.25 -6.65625,47.6876 12.03125,-44.7813 1.65625,-21.1563 z"
           style="color:#000000;fill:#ffffff;fill-opacity:1;fill-rule:nonzero;stroke:none;stroke-width:25;marker:none;visibility:visible;display:inline;overflow:visible;filter:url(#filter5523);enable-background:accumulate"
           inkscape:connector-curvature="0" />
      </g>
    </g>
    <g
       id="g5474"
       transform="matrix(1.9702346,0,0,1.9702346,-130.97585,-133.56783)"
       inkscape:export-filename="C:\Users\rober\Desktop\assets\FREE_FRIDAY\free_friday_december_16th\double_jump_effect\04.png"
       inkscape:export-xdpi="90"
       inkscape:export-ydpi="90">
      <path
         style="color:#000000;fill:#000000;fill-opacity:1;fill-rule:nonzero;stroke:none;stroke-width:25;marker:none;visibility:visible;display:inline;overflow:visible;enable-background:accumulate;opacity:0"
         d="m 347.92929,201.54781 133.47788,0 0,68.75662 -133.47788,0 z"
         id="rect5449"
         inkscape:connector-curvature="0"
         sodipodi:nodetypes="ccccc" />
      <path
         id="path5408"
         transform="matrix(0.26458334,0,0,0.26458334,-6.3049604e-6,18.562493)"
         d="m 1750.8438,791.46875 4.5624,7.46875 c 7.4664,12.02905 14.9376,19.90625 14.9376,19.90625 0,0 -5.8122,-11.63037 -10.375,-17.4375 -4.5628,-5.80712 -9.125,-9.9375 -9.125,-9.9375 z m -359.9688,5.46875 c -0.8733,-0.0794 -2.1562,4.0625 -2.1562,4.0625 -2.9037,11.61425 -0.4149,13.68482 0,10.78125 0.4148,-2.90356 3.3296,-12.87207 2.5,-14.53125 -0.1038,-0.2074 -0.219,-0.30116 -0.3438,-0.3125 z m 67.5938,13.65625 c -0.085,-0.0316 -0.3565,0.21091 -0.875,0.78125 -4.148,4.56274 -9.125,13.68481 -9.125,10.78125 0,-2.90357 -2.5,-7.0625 -2.5,-7.0625 1.2443,14.51782 -1.2473,23.24755 1.6562,15.78125 2.5407,-6.53302 11.4392,-20.06008 10.8438,-20.28125 z m 252.1562,1.1875 c 0,0 -2.0993,17.84668 -3.3438,16.1875 -1.2444,-1.65918 -9.9374,-2.90625 -9.9374,-2.90625 12.0291,11.19946 17.4092,18.6565 15.75,14.09375 -1.6593,-4.56274 -2.4688,-27.375 -2.4688,-27.375 z M 1480,829.9375 c -1.2498,0.15929 -5,8.375 -5,8.375 -7.8811,20.73974 -12.8637,36.94628 -10.375,31.96875 2.4888,-4.97754 11.6192,-18.68384 14.9375,-34.03125 1.037,-4.79607 1.0056,-6.38491 0.4375,-6.3125 z m 144.75,22.09375 c 1.2444,10.36987 3.7329,14.90601 4.5625,19.46875 0.8296,4.56274 8.7132,18.25586 7.4687,14.9375 -1.2444,-3.31836 -3.747,-13.26392 -5.4062,-18.65625 -1.6591,-5.39234 -6.625,-15.75 -6.625,-15.75 z m 34.25,1 c -0.3573,-0.43667 6,12.25 6,12.25 2.4888,5.39233 7.878,13.71045 6.2188,9.5625 -1.6592,-4.14795 -8.7214,-15.35767 -11.625,-20.75 -0.363,-0.67404 -0.5428,-1.00012 -0.5938,-1.0625 z m -86.5,0.21875 c -1.2444,21.15453 -2.5,31.12183 -2.5,37.34375 0,6.22192 4.5767,29.03149 5.4062,24.46875 0.8297,-4.56275 2.0626,-19.50537 2.0626,-25.3125 0,-5.80713 -4.9688,-36.5 -4.9688,-36.5 z m -51.7188,9.25 c -0.8577,0.30634 -2.2187,4.03125 -2.2187,4.03125 -1.6591,17.42138 -2.4803,28.21338 -0.4063,22.40625 2.074,-5.80713 3.3126,-17.84058 3.3126,-24.0625 0,-1.94435 -0.2977,-2.51424 -0.6876,-2.375 z"
         style="color:#000000;fill:#ffffff;fill-opacity:1;fill-rule:nonzero;stroke:none;stroke-width:25;marker:none;visibility:visible;display:inline;overflow:visible;enable-background:accumulate"
         inkscape:connector-curvature="0" />
      <path
         inkscape:connector-curvature="0"
         style="color:#000000;fill:#ffffff;fill-opacity:1;fill-rule:nonzero;stroke:none;stroke-width:25;marker:none;visibility:visible;display:inline;overflow:visible;filter:url(#filter5545);enable-background:accumulate"
         d="m 1750.8438,791.46875 4.5624,7.46875 c 7.4664,12.02905 14.9376,19.90625 14.9376,19.90625 0,0 -5.8122,-11.63037 -10.375,-17.4375 -4.5628,-5.80712 -9.125,-9.9375 -9.125,-9.9375 z m -359.9688,5.46875 c -0.8733,-0.0794 -2.1562,4.0625 -2.1562,4.0625 -2.9037,11.61425 -0.4149,13.68482 0,10.78125 0.4148,-2.90356 3.3296,-12.87207 2.5,-14.53125 -0.1038,-0.2074 -0.219,-0.30116 -0.3438,-0.3125 z m 67.5938,13.65625 c -0.085,-0.0316 -0.3565,0.21091 -0.875,0.78125 -4.148,4.56274 -9.125,13.68481 -9.125,10.78125 0,-2.90357 -2.5,-7.0625 -2.5,-7.0625 1.2443,14.51782 -1.2473,23.24755 1.6562,15.78125 2.5407,-6.53302 11.4392,-20.06008 10.8438,-20.28125 z m 252.1562,1.1875 c 0,0 -2.0993,17.84668 -3.3438,16.1875 -1.2444,-1.65918 -9.9374,-2.90625 -9.9374,-2.90625 12.0291,11.19946 17.4092,18.6565 15.75,14.09375 -1.6593,-4.56274 -2.4688,-27.375 -2.4688,-27.375 z M 1480,829.9375 c -1.2498,0.15929 -5,8.375 -5,8.375 -7.8811,20.73974 -12.8637,36.94628 -10.375,31.96875 2.4888,-4.97754 11.6192,-18.68384 14.9375,-34.03125 1.037,-4.79607 1.0056,-6.38491 0.4375,-6.3125 z m 144.75,22.09375 c 1.2444,10.36987 3.7329,14.90601 4.5625,19.46875 0.8296,4.56274 8.7132,18.25586 7.4687,14.9375 -1.2444,-3.31836 -3.747,-13.26392 -5.4062,-18.65625 -1.6591,-5.39234 -6.625,-15.75 -6.625,-15.75 z m 34.25,1 c -0.3573,-0.43667 6,12.25 6,12.25 2.4888,5.39233 7.878,13.71045 6.2188,9.5625 -1.6592,-4.14795 -8.7214,-15.35767 -11.625,-20.75 -0.363,-0.67404 -0.5428,-1.00012 -0.5938,-1.0625 z m -86.5,0.21875 c -1.2444,21.15453 -2.5,31.12183 -2.5,37.34375 0,6.22192 4.5767,29.03149 5.4062,24.46875 0.8297,-4.56275 2.0626,-19.50537 2.0626,-25.3125 0,-5.80713 -4.9688,-36.5 -4.9688,-36.5 z m -51.7188,9.25 c -0.8577,0.30634 -2.2187,4.03125 -2.2187,4.03125 -1.6591,17.42138 -2.4803,28.21338 -0.4063,22.40625 2.074,-5.80713 3.3126,-17.84058 3.3126,-24.0625 0,-1.94435 -0.2977,-2.51424 -0.6876,-2.375 z"
         transform="matrix(0.26458334,0,0,0.26458334,-6.3049604e-6,18.562493)"
         id="path5527" />
    </g>
    <path
       style="color:#000000;fill:#000000;fill-opacity:1;fill-rule:nonzero;stroke:none;stroke-width:25;marker:none;visibility:visible;display:inline;overflow:visible;enable-background:accumulate"
       d="m 817.5092,263.52863 262.9827,0 0,135.46667 -262.9827,0 z"
       id="rect5449-6"
       inkscape:connector-curvature="0"
       sodipodi:nodetypes="ccccc"
       inkscape:export-filename="C:\Users\rober\Desktop\assets\FREE_FRIDAY\free_friday_december_16th\double_jump_effect\05.png"
       inkscape:export-xdpi="90"
       inkscape:export-ydpi="90" />
  </g>
</svg>
